<svg width="27" height="29" viewBox="0 0 27 29" fill="none" xmlns="http://www.w3.org/2000/svg">
<path fill-rule="evenodd" clip-rule="evenodd" d="M12.136 0.614624H14.864C17.2381 0.614624 19.1187 0.614624 20.59 0.812249C22.1038 1.01633 23.3296 1.44517 24.297 2.41133C25.2632 3.37879 25.692 4.60458 25.8961 6.11842C26.0937 7.59092 26.0938 9.47029 26.0938 11.8444V17.1557C26.0938 19.5298 26.0937 21.4105 25.8961 22.8817C25.692 24.3955 25.2632 25.6213 24.297 26.5887C23.3296 27.5549 22.1038 27.9837 20.59 28.1878C19.1175 28.3855 17.2381 28.3855 14.864 28.3855H12.136C9.76192 28.3855 7.88125 28.3855 6.41004 28.1878C4.89621 27.9837 3.67042 27.5549 2.70296 26.5887C1.73679 25.6213 1.30796 24.3955 1.10388 22.8817C0.90625 21.4092 0.90625 19.5298 0.90625 17.1557V11.8444C0.90625 9.47029 0.90625 7.58962 1.10388 6.11842C1.30796 4.60458 1.73679 3.37879 2.70296 2.41133C3.67042 1.44517 4.89621 1.01633 6.41004 0.812249C7.88254 0.614624 9.76192 0.614624 12.136 0.614624ZM6.66708 2.73296C5.36767 2.90733 4.6185 3.23542 4.07083 3.78179C3.52575 4.32817 3.19767 5.07733 3.02329 6.37675C2.84504 7.70458 2.84246 9.4535 2.84246 11.9167V17.0834C2.84246 19.5466 2.84504 21.2968 3.02329 22.6246C3.19767 23.9227 3.52575 24.6719 4.07213 25.2183C4.6185 25.7647 5.36767 26.0927 6.66708 26.2671C7.99492 26.4454 9.74383 26.448 12.207 26.448H14.7904C17.2536 26.448 19.0038 26.4454 20.3316 26.2671C21.6297 26.0927 22.3789 25.7647 22.9253 25.2183C23.4717 24.6719 23.7997 23.9227 23.9741 22.6233C24.1524 21.2968 24.155 19.5466 24.155 17.0834V11.9167C24.155 9.4535 24.1524 7.70458 23.9741 6.37546C23.7997 5.07733 23.4717 4.32817 22.9253 3.78179C22.3789 3.23542 21.6298 2.90733 20.3303 2.73296C19.0038 2.55471 17.2536 2.55212 14.7904 2.55212H12.207C9.74383 2.55212 7.99621 2.55471 6.66708 2.73296ZM7.36458 11.9167C7.36458 11.6598 7.46665 11.4134 7.64832 11.2317C7.83 11.05 8.0764 10.948 8.33333 10.948H18.6667C18.9236 10.948 19.17 11.05 19.3517 11.2317C19.5334 11.4134 19.6354 11.6598 19.6354 11.9167C19.6354 12.1736 19.5334 12.42 19.3517 12.6017C19.17 12.7834 18.9236 12.8855 18.6667 12.8855H8.33333C8.0764 12.8855 7.83 12.7834 7.64832 12.6017C7.46665 12.42 7.36458 12.1736 7.36458 11.9167ZM7.36458 17.0834C7.36458 16.8264 7.46665 16.58 7.64832 16.3984C7.83 16.2167 8.0764 16.1146 8.33333 16.1146H14.7917C15.0486 16.1146 15.295 16.2167 15.4767 16.3984C15.6584 16.58 15.7604 16.8264 15.7604 17.0834C15.7604 17.3403 15.6584 17.5867 15.4767 17.7684C15.295 17.9501 15.0486 18.0521 14.7917 18.0521H8.33333C8.0764 18.0521 7.83 17.9501 7.64832 17.7684C7.46665 17.5867 7.36458 17.3403 7.36458 17.0834Z" fill="#333333"/>
</svg>
