<svg width="24" height="18" viewBox="0 0 24 18" fill="none" xmlns="http://www.w3.org/2000/svg">
<path d="M3.75391 0C2.75934 0 1.80552 0.395088 1.10226 1.09835C0.398994 1.80161 0.00390625 2.75544 0.00390625 3.75V4.5H23.9999V3.75C23.9999 2.75544 23.6048 1.80161 22.9016 1.09835C22.1983 0.395088 21.2445 0 20.2499 0H3.75391ZM0.00390625 14.25V6H23.9999V14.25C23.9999 15.2446 23.6048 16.1984 22.9016 16.9017C22.1983 17.6049 21.2445 18 20.2499 18H3.75491C2.76034 18 1.80652 17.6049 1.10326 16.9017C0.399995 16.1984 0.00490642 15.2446 0.00490642 14.25M16.2499 11.5C16.051 11.5 15.8602 11.579 15.7196 11.7197C15.5789 11.8603 15.4999 12.0511 15.4999 12.25C15.4999 12.4489 15.5789 12.6397 15.7196 12.7803C15.8602 12.921 16.051 13 16.2499 13H19.7499C19.9488 13 20.1396 12.921 20.2802 12.7803C20.4209 12.6397 20.4999 12.4489 20.4999 12.25C20.4999 12.0511 20.4209 11.8603 20.2802 11.7197C20.1396 11.579 19.9488 11.5 19.7499 11.5H16.2499Z" fill="black"/>
</svg>
